<svg width="3840" height="2160" viewBox="0 0 3840 2160" xmlns="http://www.w3.org/2000/svg"><defs><linearGradient x1="44.85055%" y1="0%" x2="55.18886%" y2="50%" id="a"><stop stop-color="#4D3E36" offset="0%"/><stop offset="100%"/></linearGradient><radialGradient cx="65.36549%" cy="0%" fx="65.36549%" fy="0%" r="96.9709%" gradientTransform="matrix(-.27868 .86864 -.49174 -.49861 .83582 -.5678)" id="b"><stop stop-color="#FC5126" offset="0%"/><stop stop-color="#B43617" stop-opacity=".81633" offset="26.41709%"/><stop stop-color="#741F0A" stop-opacity=".63254" offset="45.82658%"/><stop stop-color="#3F0F03" stop-opacity=".44279" offset="62.46314%"/><stop stop-color="#190500" stop-opacity=".2465" offset="81.6747%"/><stop stop-opacity="0" offset="100%"/></radialGradient><radialGradient cx="21.01672%" cy="0%" fx="21.01672%" fy="0%" r="120.79218%" gradientTransform="matrix(.34599 .78845 -.24193 .33553 .13745 -.1657)" id="c"><stop stop-color="#62E9F2" offset="0%"/><stop stop-color="#3DB5BE" stop-opacity=".82191" offset="24.74714%"/><stop stop-color="#1D7D85" stop-opacity=".6557" offset="46.16194%"/><stop stop-color="#094F55" stop-opacity=".2" offset="71.31389%"/><stop stop-color="#002F35" stop-opacity=".05" offset="85.15754%"/><stop stop-color="#001A21" stop-opacity="0" offset="100%"/></radialGradient><linearGradient x1="51.98139%" y1="0%" x2="99.18187%" y2="100%" id="d"><stop stop-color="#202020" stop-opacity="0" offset="0%"/><stop stop-opacity=".5" offset="53.25806%"/><stop stop-color="#181818" stop-opacity="0" offset="100%"/></linearGradient><linearGradient x1="53.12773%" y1=".17527%" x2="53.12773%" y2="100%" id="e"><stop stop-color="#051929" stop-opacity="0" offset=".04385%"/><stop stop-color="#060B11" offset="100%"/></linearGradient><linearGradient x1="50%" y1="0%" x2="50%" y2="100%" id="f"><stop stop-color="#0A0A0A" stop-opacity="0" offset="0%"/><stop stop-color="#0A0A0A" offset="100%"/></linearGradient><linearGradient x1="50.55461%" y1="100%" x2="50.5546%" y2="0%" id="g"><stop stop-color="#0A0A0A" stop-opacity="0" offset="0%"/><stop stop-color="#0A0A0A" offset="100%"/></linearGradient></defs><g fill="none" fill-rule="evenodd"><path fill="url(#a)" d="M0 0h3840v2160H0z"/><path fill="url(#b)" d="M0 0h3840v2160H0z"/><path fill="url(#c)" d="M0 0h3840v2160H0z"/><path fill="url(#d)" d="M0 0h3840v2160H0z"/><path fill="url(#e)" d="M0 0h3840v2160H0z"/><path fill-opacity=".6" fill="#0A0A0A" d="M0 0h3840v2160H0z"/><path fill="url(#f)" d="M0 1560h3840v600H0z"/><path fill="url(#g)" opacity=".4" d="M0 0h3840v600H0z"/></g></svg>
